<svg version="1.1" xmlns="http://www.w3.org/2000/svg" xmlns:xlink="http://www.w3.org/1999/xlink" viewBox="0 0 900 150">
    <title>Greenpeace Logotype</title>
    <desc>The official logotype of Greenpeace International.</desc>
    <style>
        .logotype {
            fill: rgb(115, 190, 30);
        }
    </style>
    <g class="logotype">
        <polygon points="86,45 90,43 93,40 94,37 93,35 92,29 89,21 86,17 81,13 72,10 61,12 51,18 49,20 47,21 46,22 34,32 31,34 19,45 4,64 1,71 0,79 1,100 2,106 5,111 10,115 20,120 31,123 41,124 54,124 72,121 76,119 77,122 76,140 77,142 77,144 79,146 84,148 87,150 90,150 97,146 99,142 100,137 99,127 100,121 100,119 106,95 110,87 111,83 111,79 109,75 108,70 106,68 105,65 103,63 94,61 88,62 86,63 41,70 38,72 36,78 35,84 35,86 39,94 40,95 42,96 44,96 79,89 81,90 81,93 79,97 76,99 67,103 58,105 47,105 38,104 35,103 25,101 18,98 17,97 15,91 15,85 16,81 28,64 38,52 53,39 69,31 71,31 72,32 79,44 81,45" />
        <path d="M195,105l-6-7l-4-2l-1-1l-4-2l-1-1l-2-1l-6-6v-2l3-3l3-4l4-7l4-13v-6l-1-7l-4-10l-6-10l-2-2l-2-1l-2-2l-2-1l-8-1l-3-1l-4-2 h-5l-8,1l-5,2l-2,2l-2,2l-3,5l-1,5l1,6l1,2l4,6v2l-5,16l-2,3l-4,1l-3,3l-1,2l-1,8l1,5l2,2l2,3l-2,29l1,4l4,5l3,3l7,1l3-1l2-3l1-4 l-2-19l1-4l2-3l1-2l2,1l3,3l5,3l12,10l9,9l5,4l4,1h4l3-2l2-1l4-6l1-1l1-3v-6L195,105z M164,48l-1,3l-2,3l-5,6l-4,3h-2l-1-2l2-22l2-2 l7,2l3,3v1l1,3V48z" />
        <polygon points="247,101 245,102 242,103 235,104 229,103 223,100 222,96 224,92 226,91 247,88 262,87 270,85 272,82 269,69 267,64 265,62 262,61 254,62 241,65 233,65 231,64 230,62 231,57 234,54 236,53 241,52 243,51 279,44 281,43 284,40 284,38 283,36 283,35 282,32 280,29 279,26 275,20 272,18 259,19 228,26 225,26 214,30 211,30 207,33 203,37 202,43 203,51 204,53 207,57 209,62 207,69 204,74 200,87 200,94 202,108 204,114 209,119 210,121 216,125 226,128 227,129 240,132 245,132 252,130 255,128 256,126 257,124 259,114 258,110 256,106 252,101 250,100" />
        <polygon points="332,61 325,63 314,65 311,63 312,61 314,58 315,55 318,52 321,50 325,48 348,46 350,45 364,44 366,43 368,39 368,35 362,25 359,22 355,21 348,20 333,23 331,24 310,27 306,28 303,29 297,32 294,35 294,43 290,53 288,56 285,64 278,98 279,106 280,110 282,113 284,114 287,120 289,122 290,125 297,128 300,128 302,129 308,131 316,132 320,131 330,130 335,128 338,126 340,124 341,121 342,115 341,109 338,103 336,101 336,100 333,98 330,99 327,102 324,103 318,104 308,103 303,102 300,101 299,99 299,95 302,92 305,92 309,91 312,91 318,90 328,89 342,86 351,83 354,79 354,73 353,70 349,62 347,59 344,58 342,57" />
        <path d="M387,117l1-10v-4l2-6l2-12l2-3h2l1,1l16,24l4,10v5l3,8l4,4l3,1h7l3-1l2-1l2-5l2-10l-1-11l-1-4l2-25l1-24l-2-4l1-4l3-1l2,3l5,1h3l4-1l3-2l4-1l6-1h4l1,2v11l-1,3l-2,2l-7,1l-3,2l-1,3l-2,11l2,5l2,2l1,2l3,3l4,2l-1,16v2l-1,9l2,9l3,3l3,2l3,1l6-1l2-1l2-2l1-8l3-28l1-6l2-3l4-1l5-2l7-2l10-5l13-10l4-2l-7,21l-3,15l1,11l1,5l3,6l6,6l10,6l12,2h14l14-6l3-3l1-2l1-8l-1-7l-2-5l-2-2l-3-1l-16,6l-9,2l-6-2l-3-2l-3-3v-2l1-2l8-3l42-5l7-3l3-6l-1-6l-3-9l-1-2l-2-2l-4-1l-6,4l-5,2l-23,3l-3-2v-2l6-10l27-7l28-5l4-2l1-3v-4l-1-7l-4-10l-3-2l-3-1l-17,4l-28,7l-7,1l-7,2l-2,3l-2,2l-2,4l-1,1l-3,10l-3,5l-4,5l-1-4l1-8l-1-6l-3-7l-2-5l-5-5l-7-3l-19-3l-22-1l-24,3l-4,1l-2,2l-6,2l-2,2l-2,3l-1,2l-3-3v-2l-1-2l-3-4l-6-3h-2l-3,2l-2,3l-4,47l-1,5l-2-1l-18-24l-1-2v-2l-1-2l-1-21l-2-3l-6-3h-3l-5-1l-4,2l-3,2l-1,3l-2,17l1,3l1,7l-1,14l-7,36l-1,8v10l1,5l3,2l4,1l8,1h2l2-3L387,117z M497,43l1-2h5l2,1h8l8,3v3l-3,4l-9,5l-6,1h-3l-1-2l-2-8V43z" />
        <path d="M694,97l3,3l3,5l4,4l10,9l13,8l9,4l11,4l12,1l6-1l3-1l5-4l4-6l2-5l2-3l2,1l2,3l2,1l1,2l2,1l3,3l5,3l7,2l7,1l16-1l10-2l8-3l2-4l1-6v-8l-3-3l-2-4l1-1l6-2l2-2l4-6l1-4l-1-7l-5-8l-2-2l-2-1l-3-1l-2,1l-12,2l-17-1l-2-3l4-7l4-4l39-4l12-1h3l8-1l11,1h6l1-2V38l-2-6l-3-6l-2-1l-1-2l-2-1l-2-1l-7,1l-2,1l-24,4l-12,1l-4,1l-37,6l-2,1l-4,4l-3,8v9l-2,3l-7,18l-3,12l-1,9l-3,1l-2-2l-2-1h-2l-6,4l-1,1l-7,2h-11l-4-1l-11-5h-1l-13-10l-2-2l1-5l1-3l2-4l1-1l6-8l8-8l3-2l7-3l3-1l2-1h2l2,1l1,3l-1,9v6l2,2l3,2l2,1l4,1h8l5-7l1-1l2-7l1-6l-1-7l-1-2l-1-3l-3-4l-1-2l-5-5l-2-1l-3-1l-9,1l-14,3l-12,4l-12,6l-9,6l-3,4l-3,2l-7,12l-2-4l-6-26l-4-7l-4-6l-2-2l-4-2l-5-1l-3,2l-11,10l-12,19l-7,14l-5,10l-3,2l-3,2l-1,7l-1,4l-5,11l-2,2l-1,2l-1,1l-2,5l-2,7v6l2,4l1,1l9,5h1l5-4l1-2l1-2l1-1l4-10l1-1l2-5l2-2l2-1l2-1l13-3h11l2,1l1,2v16l1,8l4,4l5,2h6l2-1l2-3l1-3l1-6l-1-20l1-4H694z M670,68l-3,3l-6,1l-3-1v-4l8-16l3-1l1,3v5V68zM822,99l12,1l3,1h2l1,1v2l-26,3l-5-1l-3-1l-3-3l1-2l3-1h2l2,1L822,99z" />
    </g>
</svg>